PathFileType	4	(X/Y/Z)	/home/utkubuntu/opensim/opensim_mycode/release_code/bioimitation/imitation_envs/data/02905/02905_PRE/experimental_data/task.trc
DataRate	CameraRate	NumFrames	NumMarkers	Units	OrigDataRate	OrigDataStartFrame	OrigNumFrames
100.000000	100.000000	4	43	mm	100.000000	179	478
Frame#	Time	C7			CLAV			LANK			LASI			LBHD			LELB			LFHD			LFIN			LHEE			LKNE			LMED			LMET			LMIF			LPSI			LSHO			LTHI			LTIB			LTOE			LTTU			LWRA			LWRB			RANK			RASI			RBAK			RBHD			RELB			RFHD			RFIN			RHEE			RKNE			RMED			RMET			RMIF			RPSI			RSHO			RTHI			RTIB			RTOE			RTTU			RWRA			RWRB			STRN			T10			
		X1	Y1	Z1	X2	Y2	Z2	X3	Y3	Z3	X4	Y4	Z4	X5	Y5	Z5	X6	Y6	Z6	X7	Y7	Z7	X8	Y8	Z8	X9	Y9	Z9	X10	Y10	Z10	X11	Y11	Z11	X12	Y12	Z12	X13	Y13	Z13	X14	Y14	Z14	X15	Y15	Z15	X16	Y16	Z16	X17	Y17	Z17	X18	Y18	Z18	X19	Y19	Z19	X20	Y20	Z20	X21	Y21	Z21	X22	Y22	Z22	X23	Y23	Z23	X24	Y24	Z24	X25	Y25	Z25	X26	Y26	Z26	X27	Y27	Z27	X28	Y28	Z28	X29	Y29	Z29	X30	Y30	Z30	X31	Y31	Z31	X32	Y32	Z32	X33	Y33	Z33	X34	Y34	Z34	X35	Y35	Z35	X36	Y36	Z36	X37	Y37	Z37	X38	Y38	Z38	X39	Y39	Z39	X40	Y40	Z40	X41	Y41	Z41	X42	Y42	Z42	X43	Y43	Z43	

180	1.79	-104.0770034790039	1240.470947265625	262.9249877929685	2.471999883651765	1164.218994140625	258.1839904785153	150.2550048828125	75.38300323486331	150.6510009765624	4.645999908447286	826.1690063476562	166.4519958496092	-93.53099822998044	1370.223022460938	193.7689971923825	-188.3710021972656	958.656005859375	88.58999633789044	47.36399841308596	1385.56201171875	182.9539947509762	-271.1099853515625	702.3280029296875	79.03800201416003	117.6959991455078	32.81499862670903	198.7740020751953	53.83800125122072	442.7619934082032	139.2830047607421	168.4440002441407	90.48500061035161	219.9519958496093	242.3890075683594	52.26499938964847	131.6419982910156	213.031005859375	102.2919998168946	174.6000061035156	-143.5800018310547	849.739013671875	203.3880004882811	-88.65200042724608	1204.1259765625	126.2080001831052	36.69300079345705	497.8030090332031	92.04799652099598	92.88999938964845	246.6829986572266	96.36199951171868	262.2470092773438	78.73899841308597	158.636001586914	128.5559997558594	373.1220092773438	194.990997314453	-213.9759979248047	747.9739990234375	92.8629989624022	-277.2950134277344	766.1719970703125	96.91300201416001	-355.8580017089843	110.6839981079102	322.0100097656251	-29.87299919128413	831.7589721679689	387.147003173828	-147.9759979248046	1126.225952148438	359.877014160156	-98.55599975585933	1352.317016601562	331.8349914550778	-65.11599731445307	954.3120117187501	498.9169921874998	57.21900177001957	1382.655029296875	320.1409912109372	69.08499908447273	742.3579711914064	534.3330078124999	-399.2200012207031	97.15699768066412	266.3330078125001	-168.9049987792968	440.3450012207032	375.1080017089843	-320.8949890136718	96.53099822998053	255.0019989013672	-302.1210021972656	37.69100189208992	357.6870117187501	-287.3389892578124	92.05300140380866	308.1759948730469	-155.3190002441406	860.9730224609376	297.3949890136717	-65.26499938964839	1220.60595703125	386.3210144042966	-138.4140014648437	521.6959838867189	430.0820007324218	-269.1889953613281	284.9809875488282	404.5060119628906	-264.5499877929687	45.23699951171883	336.4830017089844	-152.3880004882812	345.2590026855469	323.3169860839843	65.6859970092774	780.7199707031251	493.4469909667967	11.65999984741217	752.5980224609376	528.1669921874999	35.33499908447269	1045.192993164062	264.0740051269529	-147.4880065917968	965.4650268554689	260.0790100097654	
181	1.8	-92.81700134277341	1239.910034179688	261.3139953613278	13.79100036621097	1163.8310546875	256.9830017089841	159.0579986572266	73.55000305175784	154.011001586914	17.01799964904787	826.0289916992188	164.7570037841795	-82.72299957275388	1369.288940429688	191.8650054931637	-180.1210021972656	959.8369750976562	88.23300170898419	58.11000061035158	1385.14404296875	180.8999938964841	-267.0350036621094	704.677001953125	79.86299896240222	127.8040008544922	32.04600143432621	203.6479949951172	64.04000091552736	441.7250061035157	139.5870056152343	179.3560028076172	89.77300262451176	222.4579925537109	250.6410064697266	49.51399993896487	132.8630065917968	222.7989959716797	100.5400009155274	175.7010040283203	-131.2200012207031	849.6019897460938	202.0520019531248	-77.0439987182617	1203.733032226562	124.8560028076169	48.49300003051759	497.0809936523438	92.29199981689442	100.0640029907227	244.0690002441407	98.7080001831054	271.3720092773438	76.38200378417972	158.5679931640624	139.6540069580078	372.4979858398438	193.9550018310546	-209.1620025634766	749.6489868164062	92.91999816894517	-272.1340026855469	768.6939697265625	97.5670013427733	-352.8840026855468	114.5419998168946	322.8269958496094	-17.42300033569331	831.1389770507814	385.5350036621092	-136.6849975585937	1125.526977539062	358.0889892578123	-87.63300323486324	1352.073974609375	330.013000488281	-54.24000167846673	953.9680175781251	496.846984863281	68.01899719238286	1382.972045898438	318.0929870605466	81.54599761962898	743.2410278320314	533.1909790039061	-396.2239990234374	102.4509963989258	267.0490112304688	-159.3249969482421	440.6889953613282	375.1149902343749	-318.0840148925781	99.69899749755865	255.9620056152344	-301.1960144042968	38.89799880981453	357.8569946289063	-284.7390136718749	93.87500000000007	309.2099914550782	-142.906997680664	860.5919799804689	296.0249938964842	-54.73400115966792	1220.328979492188	384.8080139160153	-128.6849975585937	522.0689697265626	429.6440124511718	-262.2160034179687	287.2090148925782	405.1440124511719	-263.5159912109374	45.67699813842781	336.8080139160157	-144.2870025634765	344.8739929199219	323.8160095214843	78.65200042724615	781.8599853515626	492.4509887695311	24.12000083923346	752.8619995117189	525.9869995117186	47.03400039672855	1044.973022460938	262.8280029296873	-135.5339965820312	964.8880004882814	259.0799865722654	
182	1.81	-81.55100250244138	1239.29296875	259.648010253906	25.18000030517581	1163.538940429688	255.6950073242185	165.8860015869141	71.20300292968753	157.4980010986328	29.62000083923342	825.89501953125	162.8339996337889	-71.86399841308591	1368.368041992188	189.9490051269528	-171.2960052490234	960.9829711914062	87.72499847412089	68.911003112793	1384.677001953125	178.815994262695	-262.1489868164062	707.0599975585938	80.34700012207018	135.6699981689453	31.08200073242192	208.3600006103515	74.2779998779297	440.6619873046876	139.9770050048827	188.4839935302735	88.25499725341803	224.9889984130859	256.7470092773438	45.86600112915042	134.1009979248047	230.7449951171875	97.90100097656254	176.938003540039	-118.6259994506836	849.4409790039062	200.7749938964842	-65.36599731445311	1203.423950195312	123.4280014038083	60.0540008544922	496.3510131835938	92.69799804687487	106.6709976196289	241.3800048828125	101.2369995117187	278.7260131835938	72.97000122070315	158.4999999999999	150.6679992675782	371.4909973144532	193.0180053710936	-203.5579986572266	751.3469848632812	92.78099822998033	-266.2090148925781	771.1699829101562	98.04499816894517	-349.5390014648437	118.6250000000001	323.7990112304688	-4.481999874114943	830.5189819335939	383.7189941406248	-125.2969970703125	1124.663940429688	356.1600036621091	-76.63400268554683	1351.907958984375	328.179992675781	-43.60800170898431	953.5529785156251	494.6499938964841	78.90399932861332	1383.307983398438	316.0060119628903	93.76999664306648	744.0260009765626	531.8720092773436	-392.7390136718749	108.0579986572266	267.8859863281251	-149.1219940185546	441.0249938964844	375.251007080078	-314.8320007324218	103.0540008544922	257.1589965820313	-300.1380004882812	40.15200042724617	358.1010131835938	-281.8940124511718	95.77799987792976	310.4599914550782	-130.1399993896484	860.2109985351564	294.7019958496092	-44.25600051879878	1219.933959960938	383.1950073242185	-118.2929992675781	522.4589843750001	429.2359924316405	-254.8459930419921	289.5969848632814	405.9599914550781	-262.3800048828124	46.09899902343758	337.2139892578126	-135.6820068359375	344.4039916992188	324.6229858398437	91.30899810791021	782.9429931640626	491.313995361328	36.33599853515631	753.0510253906251	523.6300048828124	58.93099975585941	1044.868041992188	261.3659973144529	-123.3259963989258	964.2719726562501	257.9890136718748	
183	1.82	-70.28099822998044	1238.5849609375	257.898986816406	36.64300155639651	1163.321044921875	254.294006347656	171.1940002441407	68.63200378417973	160.7729949951171	42.47000122070315	825.7009887695312	160.7790069580076	-60.95100021362303	1367.427001953125	188.024002075195	-161.9199981689453	962.0599975585938	87.04599761962871	79.77200317382815	1384.107055664062	176.7239990234372	-256.4450073242188	709.4099731445312	80.5159988403319	141.4389953613282	30.14599990844731	212.5030059814453	84.61900329589845	439.5679931640626	140.3630065917968	195.9299926757813	86.01300048828131	227.4259948730468	261.1010131835938	41.56000137329104	135.3939971923828	237.218994140625	94.53700256347661	178.3699951171874	-105.8109970092773	849.1909790039062	199.4830017089842	-53.62400054931639	1203.183959960938	121.908996582031	71.2779998779297	495.5750122070312	93.17800140380847	112.9260025024414	238.7469940185547	103.8099975585937	284.5050048828125	68.58699798583987	158.7039947509765	161.5319976806641	370.0530090332032	192.2859954833983	-197.1609954833984	753.0009765625	92.47899627685533	-259.4960021972656	773.5419921875	98.34400177001939	-345.7690124511718	122.911003112793	324.9440002441407	8.897000312805222	829.8740234375001	381.7560119628905	-113.8359985351562	1123.572021484375	354.0539855957029	-65.56800079345699	1351.767944335938	326.3370056152341	-33.22100067138666	953.0180053710939	492.3659973144529	89.84600067138676	1383.593017578125	313.9010009765622	105.7979965209962	744.6870117187501	530.3720092773436	-388.6499938964843	113.9649963378907	268.8229980468751	-138.2100067138671	441.2730102539063	375.5419921874999	-311.0369873046874	106.556999206543	258.6340026855469	-298.9540100097656	41.41500091552742	358.4200134277344	-278.7909851074218	97.72599792480476	311.9840087890626	-117.0350036621093	859.7700195312501	293.3749999999998	-33.8359985351562	1219.362060546875	381.4689941406247	-107.1510009765624	522.7730102539064	428.9110107421874	-247.0639953613281	292.1170043945314	406.9209899902344	-261.1340026855468	46.46599960327156	337.7059936523438	-126.4919967651367	343.7820129394532	325.7940063476562	103.5989990234376	783.9019775390626	490.0209960937498	48.3440017700196	753.1190185546876	521.1500244140624	71.04100036621097	1044.849975585938	259.710998535156	-110.8290023803711	963.5339965820314	256.7160034179685	
